<svg xmlns="http://www.w3.org/2000/svg" xmlns:xlink="http://www.w3.org/1999/xlink" width ="300" height ="300" viewBox="0 0 6 6"><rect class="avatar" x="0" y="0" width="1" height="1" fill="#f4ea3"  /><rect class="avatar" x="1" y="0" width="1" height="1" fill="#2b979"  /><rect class="avatar" x="2" y="0" width="1" height="1" fill="#2b979"  /><rect class="avatar" x="3" y="0" width="1" height="1" fill="#2b979"  /><rect class="avatar" x="4" y="0" width="1" height="1" fill="#2b979"  /><rect class="avatar" x="5" y="0" width="1" height="1" fill="#f4ea3"  /><rect class="avatar" x="0" y="1" width="1" height="1" fill="#f4ea3"  /><rect class="avatar" x="1" y="1" width="1" height="1" fill="#f9f43a"  /><rect class="avatar" x="2" y="1" width="1" height="1" fill="#345f2e"  /><rect class="avatar" x="3" y="1" width="1" height="1" fill="#345f2e"  /><rect class="avatar" x="4" y="1" width="1" height="1" fill="#f9f43a"  /><rect class="avatar" x="5" y="1" width="1" height="1" fill="#f4ea3"  /><rect class="avatar" x="0" y="2" width="1" height="1" fill="#f9f43a"  /><rect class="avatar" x="1" y="2" width="1" height="1" fill="#f4ea3"  /><rect class="avatar" x="2" y="2" width="1" height="1" fill="#f9f43a"  /><rect class="avatar" x="3" y="2" width="1" height="1" fill="#f9f43a"  /><rect class="avatar" x="4" y="2" width="1" height="1" fill="#f4ea3"  /><rect class="avatar" x="5" y="2" width="1" height="1" fill="#f9f43a"  /><rect class="avatar" x="0" y="3" width="1" height="1" fill="#345f2e"  /><rect class="avatar" x="1" y="3" width="1" height="1" fill="#f4ea3"  /><rect class="avatar" x="2" y="3" width="1" height="1" fill="#f9f43a"  /><rect class="avatar" x="3" y="3" width="1" height="1" fill="#f9f43a"  /><rect class="avatar" x="4" y="3" width="1" height="1" fill="#f4ea3"  /><rect class="avatar" x="5" y="3" width="1" height="1" fill="#345f2e"  /><rect class="avatar" x="0" y="4" width="1" height="1" fill="#f9f43a"  /><rect class="avatar" x="1" y="4" width="1" height="1" fill="#345f2e"  /><rect class="avatar" x="2" y="4" width="1" height="1" fill="#345f2e"  /><rect class="avatar" x="3" y="4" width="1" height="1" fill="#345f2e"  /><rect class="avatar" x="4" y="4" width="1" height="1" fill="#345f2e"  /><rect class="avatar" x="5" y="4" width="1" height="1" fill="#f9f43a"  /><rect class="avatar" x="0" y="5" width="1" height="1" fill="#345f2e"  /><rect class="avatar" x="1" y="5" width="1" height="1" fill="#f4ea3"  /><rect class="avatar" x="2" y="5" width="1" height="1" fill="#2b979"  /><rect class="avatar" x="3" y="5" width="1" height="1" fill="#2b979"  /><rect class="avatar" x="4" y="5" width="1" height="1" fill="#f4ea3"  /><rect class="avatar" x="5" y="5" width="1" height="1" fill="#345f2e"  /></svg>