<svg xmlns="http://www.w3.org/2000/svg" xmlns:xlink="http://www.w3.org/1999/xlink" width ="300" height ="300" viewBox="0 0 7 7"><rect class="avatar" x="0" y="0" width="1" height="1" fill="#163b3"  /><rect class="avatar" x="1" y="0" width="1" height="1" fill="#6eabc0"  /><rect class="avatar" x="2" y="0" width="1" height="1" fill="#163b3"  /><rect class="avatar" x="3" y="0" width="1" height="1" fill="#163b3"  /><rect class="avatar" x="4" y="0" width="1" height="1" fill="#163b3"  /><rect class="avatar" x="5" y="0" width="1" height="1" fill="#6eabc0"  /><rect class="avatar" x="6" y="0" width="1" height="1" fill="#163b3"  /><rect class="avatar" x="0" y="1" width="1" height="1" fill="#163b3"  /><rect class="avatar" x="1" y="1" width="1" height="1" fill="#1d382f"  /><rect class="avatar" x="2" y="1" width="1" height="1" fill="#5ae33c"  /><rect class="avatar" x="3" y="1" width="1" height="1" fill="#5ae33c"  /><rect class="avatar" x="4" y="1" width="1" height="1" fill="#5ae33c"  /><rect class="avatar" x="5" y="1" width="1" height="1" fill="#1d382f"  /><rect class="avatar" x="6" y="1" width="1" height="1" fill="#163b3"  /><rect class="avatar" x="0" y="2" width="1" height="1" fill="#5ae33c"  /><rect class="avatar" x="1" y="2" width="1" height="1" fill="#6eabc0"  /><rect class="avatar" x="2" y="2" width="1" height="1" fill="#5ae33c"  /><rect class="avatar" x="3" y="2" width="1" height="1" fill="#5ae33c"  /><rect class="avatar" x="4" y="2" width="1" height="1" fill="#5ae33c"  /><rect class="avatar" x="5" y="2" width="1" height="1" fill="#6eabc0"  /><rect class="avatar" x="6" y="2" width="1" height="1" fill="#5ae33c"  /><rect class="avatar" x="0" y="3" width="1" height="1" fill="#6eabc0"  /><rect class="avatar" x="1" y="3" width="1" height="1" fill="#f6361b"  /><rect class="avatar" x="2" y="3" width="1" height="1" fill="#6eabc0"  /><rect class="avatar" x="3" y="3" width="1" height="1" fill="#1d382f"  /><rect class="avatar" x="4" y="3" width="1" height="1" fill="#6eabc0"  /><rect class="avatar" x="5" y="3" width="1" height="1" fill="#f6361b"  /><rect class="avatar" x="6" y="3" width="1" height="1" fill="#6eabc0"  /><rect class="avatar" x="0" y="4" width="1" height="1" fill="#1d382f"  /><rect class="avatar" x="1" y="4" width="1" height="1" fill="#f6361b"  /><rect class="avatar" x="2" y="4" width="1" height="1" fill="#163b3"  /><rect class="avatar" x="3" y="4" width="1" height="1" fill="#f6361b"  /><rect class="avatar" x="4" y="4" width="1" height="1" fill="#163b3"  /><rect class="avatar" x="5" y="4" width="1" height="1" fill="#f6361b"  /><rect class="avatar" x="6" y="4" width="1" height="1" fill="#1d382f"  /><rect class="avatar" x="0" y="5" width="1" height="1" fill="#6eabc0"  /><rect class="avatar" x="1" y="5" width="1" height="1" fill="#1d382f"  /><rect class="avatar" x="2" y="5" width="1" height="1" fill="#6eabc0"  /><rect class="avatar" x="3" y="5" width="1" height="1" fill="#163b3"  /><rect class="avatar" x="4" y="5" width="1" height="1" fill="#6eabc0"  /><rect class="avatar" x="5" y="5" width="1" height="1" fill="#1d382f"  /><rect class="avatar" x="6" y="5" width="1" height="1" fill="#6eabc0"  /><rect class="avatar" x="0" y="6" width="1" height="1" fill="#1d382f"  /><rect class="avatar" x="1" y="6" width="1" height="1" fill="#1d382f"  /><rect class="avatar" x="2" y="6" width="1" height="1" fill="#6eabc0"  /><rect class="avatar" x="3" y="6" width="1" height="1" fill="#163b3"  /><rect class="avatar" x="4" y="6" width="1" height="1" fill="#6eabc0"  /><rect class="avatar" x="5" y="6" width="1" height="1" fill="#1d382f"  /><rect class="avatar" x="6" y="6" width="1" height="1" fill="#1d382f"  /></svg>